<?xml version="1.0" encoding="utf-8"?>
<svg height="930" version="1.2" viewBox="0 0 883 930" width="883" xmlns="http://www.w3.org/2000/svg">
<title>hubelogo</title>
<style>
		.s0 { fill: #000000 } 
		.s1 { fill: #ffffff } 
	</style>
<g id="Layer 2">
<path class="s0" d="m417.5 36.6c-2.2 0.2-10.5 0.9-18.5 1.4-8 0.6-20.8 2-28.5 3.1-8.2 1.1-23.2 4.4-36 7.9-12.1 3.2-24.3 6.4-27 7.1-2.8 0.7-13.3 4.3-23.5 8.1-10.2 3.8-24.8 9.9-32.5 13.4-7.7 3.6-16.7 8.2-20 10.3-3.3 2.1-8.5 5.1-11.5 6.6-3 1.5-10.2 5.7-16 9.3-5.8 3.6-14.8 9.5-20 13-5.2 3.6-13.3 9.7-18 13.6-4.7 3.9-11.9 10-16 13.5-4.1 3.6-10.2 9-13.5 12.1-3.3 3-14 14.3-23.9 25-9.8 10.7-19.9 22.4-22.4 26-2.5 3.6-7.7 11-11.5 16.5-3.8 5.5-10.6 15.8-15 23-4.3 7.1-10.8 18.4-14.3 25-3.4 6.6-7.4 14.9-8.8 18.5-1.3 3.6-4.5 10.8-6.9 16-2.5 5.2-5.7 13.5-7.2 18.5-1.5 5-4.5 13.3-6.6 18.5-2 5.2-5.3 16-7.2 24-1.9 8-4.4 16.5-5.6 19-1.1 2.5-3.2 5.6-4.6 7l-2.6 2.5c0.1 153.9 0.1 155 2.1 156.2 1.1 0.7 2.9 3.1 4 5.3 1.1 2.2 3.8 11.2 6 20 2.2 8.8 5.2 19 6.6 22.7 1.4 3.8 4.6 12.6 7 19.8 2.4 7.2 6.8 18.6 9.6 25.5 2.9 6.9 8.9 19.7 13.4 28.5 4.5 8.8 10.7 20 13.9 25 3.2 5 10.5 16 16.1 24.5 5.7 8.5 12.5 18.1 15.1 21.2 2.7 3.1 10.2 11.9 16.8 19.4 6.6 7.6 16.5 17.8 21.9 22.8 5.5 5 13.6 12.5 18 16.6 4.5 4.2 10.1 9.2 12.6 11.2 2.5 2 10.3 7.5 17.5 12.4 7.2 4.8 18.2 12.2 24.5 16.4 6.3 4.2 17.6 10.8 25 14.6 7.4 3.9 20.5 10 29 13.7 8.5 3.6 23.1 8.9 32.5 11.8 9.4 2.8 20.4 6 24.5 7 4.1 1 12.9 2.6 19.5 3.5 6.6 0.9 21.9 1.8 34 2.1 13.1 0.3 27.7 0.1 36-0.6 7.7-0.7 20.1-2.1 27.5-3.1 7.4-1.1 19.4-3.6 26.5-5.6 7.1-1.9 17.7-4.6 23.5-6 5.8-1.3 19.1-5.2 29.5-8.5 10.5-3.4 23-7.6 28-9.4 5-1.9 14.2-5.4 20.5-7.8 6.3-2.4 13.5-5.5 16-6.7 2.5-1.3 10.1-4.7 17-7.6 6.9-2.8 19.5-8.1 28-11.7 8.5-3.5 22.9-10.1 32-14.5 9.1-4.5 25.3-12.9 36-18.7 10.7-5.9 24.2-13.9 30-17.8 5.8-3.9 16.4-11.5 23.5-16.8 7.1-5.3 18.4-14.8 25.1-21 6.6-6.3 15.6-15.4 20-20.4 4.3-5 10.6-12.6 13.9-17 3.2-4.4 8.1-11.8 10.8-16.5 2.7-4.7 6.1-10.1 7.5-12 1.4-1.9 5.3-9.1 8.5-16 3.3-6.9 8.7-19.7 11.9-28.5 3.3-8.8 6.8-18.5 7.8-21.5 1-3 4.8-16.5 8.4-30 3.7-13.5 7.5-30.3 8.5-37.5 1.1-7.2 2.5-20.7 3.1-30 0.8-10.9 1.1-28.7 0.7-50-0.4-25-1-36.7-2.6-48.5-1.1-8.5-2.5-18-3.1-21-0.6-3-2.2-9.1-3.5-13.5-1.3-4.4-4.1-15-6.3-23.5-2.2-8.5-5.8-20.2-8-26-2.2-5.8-4.7-13-5.7-16-1-3-4.9-12.5-8.7-21-3.8-8.5-9.4-19.8-12.4-25-3.1-5.2-9.3-15.8-13.8-23.5-4.5-7.7-11.3-18.3-15.1-23.5-3.8-5.2-10.6-13.8-15-19.1-4.4-5.2-13.2-15.6-19.6-23-6.4-7.4-14.7-16.1-18.5-19.5-3.8-3.3-10.3-8.9-14.4-12.5-4.1-3.5-11.5-9.8-16.5-13.9-4.9-4.1-13.7-10.9-19.5-15-5.8-4.1-15.9-10.7-22.5-14.6-6.6-3.9-15.6-9.2-20-11.7-4.4-2.6-11.1-6.3-15-8.1-3.9-1.9-11.5-5.4-17-7.9-5.5-2.5-18.1-7.5-28-11-9.9-3.5-24.3-8.1-32-10-7.7-2-17.6-4.7-22-6.1-4.4-1.3-12.3-3.1-17.5-4-5.2-0.9-18.3-2.5-29-3.6-10.7-1.1-29.2-2.2-41-2.4-11.8-0.2-23.3-0.2-25.5 0zm1417.5 202.6c-2.7 1.4-5.3 3.7-6.5 5.8-2 3.5-2 4.8-2 154 0 148.7 0 150.5 2 153.9 1.1 1.9 3.6 4.4 5.5 5.5 3.5 2.1 4.7 2.1 84.8 2.3l81.2 0.3v-56c-102.1-0.5-103.9-0.6-106.6-2.5-1.4-1.1-3.6-3.3-4.8-4.8-2-2.7-2.1-3.9-2.1-30.7 0-26.8 0.1-28 2.1-30.7 1.2-1.5 3.4-3.7 4.8-4.8 2.6-1.9 4.8-2 45.4-2.6l42.7-0.5c11.6-4.2 15.8-5.4 16.7-5.4 1.7 0 1.8-1.7 1.8-21.8v-21.7l-17.5-5.9c-81.9-1.1-84.2-1.2-88-3.2-2.7-1.4-4.7-3.4-6.3-6.5-2.2-4.3-2.3-4.9-2-32.1 0.3-26.3 0.4-27.8 2.4-30.5 1.2-1.5 3.6-3.7 5.5-4.8 3.3-1.9 5.4-2 54.6-2.3l51.3-0.2v-57h-160.5zm98.5 402.6c-1.7 0.4-4.3 1.5-5.8 2.4-1.5 1-3.5 3.2-4.5 5-1.6 2.9-1.8 7.7-2 48.2-0.2 28.3 0 46.3 0.7 48.5 0.5 2 2.2 4.7 3.6 6 1.7 1.7 3.8 2.5 6 2.5 1.8 0 4.6-0.9 6.2-2 1.6-1.3 3.7-4.5 5.1-8 1.2-3.3 2.9-7.1 3.6-8.5 1.1-1.8 2.4-2.5 5-2.7 3.2-0.2 4 0.3 7.8 4.9 2.4 2.8 6.3 7.4 8.8 10 2.5 2.7 5.9 5.6 7.7 6.4 1.8 0.8 4.4 1.4 5.8 1.4 1.4 0 3.7-0.6 5.2-1.3 1.5-0.8 3.1-2.5 3.5-3.8 0.5-1.6 0-4-1.6-7.4-1.3-2.7-4-7-6.1-9.5-2.1-2.4-4.4-5.7-5.1-7.2-0.8-1.5-1.4-4.4-1.5-6.5 0-2.3 0.9-5.1 2.3-7.2 1.3-1.9 5.4-6.1 9.3-9.3 3.8-3.2 8.2-6 9.7-6.3l2.8-0.5-0.2-36.6c-5.7-1.8-10.2-4.9-13.8-8-3.6-3.1-9-6.8-12-8.2-5.1-2.4-6.7-2.6-21.5-2.8-8.8-0.2-17.4 0.1-19 0.5z" id="Path 0"/>
<path class="s1" d="m0-533h2000v770h-160.5l-4.5 2.2c-2.7 1.4-5.3 3.7-6.5 5.8-2 3.5-2 4.8-2 154 0 150.3 0 150.5 2.1 154 1.1 1.9 3.6 4.4 5.5 5.5 3.3 1.9 5.4 2 165.9 2.5v49.5c0 32.3-0.3 49.5-1 49.5-0.5 0-2.5-0.6-4.3-1.4-1.7-0.8-5.9-3.7-9.2-6.6-3.3-2.9-8.5-6.4-11.5-7.9-5.3-2.5-6.1-2.6-23.5-2.6-16.2 0-18.3 0.2-21.4 2-1.9 1.1-4.4 3.6-5.5 5.5-2 3.4-2.1 5.1-2.4 48.5-0.2 28.3 0.1 46.3 0.7 48.5 0.5 1.9 2.2 4.6 3.6 6 1.8 1.6 3.8 2.5 6 2.5 1.8 0 4.6-0.9 6.2-2.1 1.7-1.2 3.7-4.4 5.1-8 1.2-3.2 2.9-7 3.7-8.4 1-1.8 2.3-2.6 4.9-2.7 3.2-0.3 4 0.2 7.8 4.9 2.4 2.8 6.3 7.3 8.8 10 2.5 2.7 6 5.5 7.7 6.3 1.8 0.8 4.4 1.5 5.8 1.5 1.4 0 3.7-0.6 5.2-1.4 1.6-0.7 3.1-2.4 3.5-3.7 0.5-1.6 0-4-1.6-7.4-1.3-2.7-4-7-6.1-9.5-2-2.5-4.4-5.7-5.1-7.2-0.8-1.6-1.4-4.4-1.4-6.3 0-1.9 0.6-4.7 1.4-6.2 0.7-1.6 3.3-4.6 5.7-6.8 2.4-2.2 6-5.2 7.9-6.7 1.9-1.5 4.7-2.9 9-3.8v770h-2000v-458c0-251.9 0.3-458 0.7-458 0.5-0.1 1.5 0.7 2.4 1.7 0.9 1 2.4 3.3 3.3 5.1 0.9 1.7 3.4 10.4 5.6 19.2 2.2 8.8 5.2 19 6.6 22.8 1.4 3.7 4.6 12.5 7 19.7 2.4 7.2 6.8 18.6 9.6 25.5 2.9 6.9 8.9 19.7 13.4 28.5 4.5 8.8 10.7 20 13.9 25 3.2 5 10.5 16 16.1 24.5 5.7 8.5 12.5 18.1 15.1 21.2 2.7 3.1 10.2 11.9 16.8 19.4 6.6 7.6 16.5 17.8 21.9 22.8 5.5 5 13.6 12.5 18 16.6 4.5 4.2 10.1 9.2 12.6 11.2 2.5 2 10.3 7.5 17.5 12.4 7.1 4.8 18.2 12.2 24.5 16.4 6.3 4.2 17.6 10.8 25 14.6 7.4 3.9 20.5 10 29 13.7 8.5 3.6 23.1 8.9 32.5 11.8 9.4 2.8 20.4 6 24.5 7 4.1 1 12.9 2.6 19.5 3.5 6.6 0.9 21.9 1.8 34 2.1 13.1 0.3 27.7 0.1 36-0.6 7.7-0.7 20.1-2.1 27.5-3.1 7.4-1.1 19.4-3.6 26.5-5.6 7.1-1.9 17.7-4.6 23.5-6 5.8-1.3 19.1-5.2 29.5-8.5 10.5-3.4 23-7.6 28-9.4 5-1.9 14.2-5.4 20.5-7.8 6.3-2.4 13.5-5.5 16-6.7 2.5-1.3 10.1-4.7 17-7.6 6.9-2.8 19.5-8.1 28-11.7 8.5-3.5 22.9-10.1 32-14.5 9.1-4.5 25.3-12.9 36-18.7 10.7-5.9 24.2-13.9 30-17.8 5.8-3.9 16.4-11.5 23.5-16.8 7.1-5.3 18.4-14.8 25.1-21 6.6-6.3 15.6-15.4 20-20.4 4.3-5 10.6-12.6 13.9-17 3.2-4.4 8.1-11.8 10.8-16.5 2.7-4.7 6.1-10.1 7.5-12 1.4-1.9 5.3-9.1 8.5-16 3.3-6.9 8.7-19.7 11.9-28.5 3.3-8.8 6.8-18.5 7.8-21.5 1-3 4.8-16.5 8.4-30 3.7-13.5 7.5-30.3 8.5-37.5 1.1-7.2 2.5-20.7 3.1-30 0.8-10.9 1.1-28.7 0.7-50-0.4-25-1-36.7-2.6-48.5-1.1-8.5-2.5-18-3.1-21-0.6-3-2.2-9.1-3.5-13.5-1.3-4.4-4.1-15-6.3-23.5-2.2-8.5-5.8-20.2-8-26-2.2-5.8-4.7-13-5.7-16-1-3-4.9-12.5-8.7-21-3.8-8.5-9.4-19.8-12.4-25-3.1-5.2-9.3-15.8-13.8-23.5-4.5-7.7-11.3-18.3-15.1-23.5-3.8-5.2-10.6-13.8-15-19.1-4.4-5.2-13.2-15.6-19.6-23-6.4-7.4-14.7-16.1-18.5-19.5-3.8-3.3-10.3-8.9-14.4-12.5-4.1-3.5-11.5-9.8-16.5-13.9-4.9-4.1-13.7-10.9-19.5-15-5.8-4.1-15.9-10.7-22.5-14.6-6.6-3.9-15.6-9.2-20-11.7-4.4-2.6-11.1-6.3-15-8.1-3.9-1.9-11.5-5.4-17-7.9-5.5-2.5-18.1-7.5-28-11-9.9-3.5-23.6-7.9-30.5-9.6-6.9-1.8-17-4.6-22.5-6.2-5.5-1.6-13.8-3.5-18.5-4.3-4.7-0.8-17.9-2.5-29.5-3.7-15.6-1.7-27.3-2.3-45.5-2.3-13.5 0-31 0.5-39 1.2-8 0.7-20.8 2.2-28.5 3.3-8.2 1.1-23.1 4.4-36 7.9-12.1 3.2-24.3 6.4-27 7.1-2.8 0.7-13.3 4.3-23.5 8.1-10.2 3.8-24.8 9.9-32.5 13.4-7.7 3.6-16.7 8.2-20 10.3-3.3 2.1-8.5 5.1-11.5 6.6-3 1.5-10.2 5.7-16 9.3-5.8 3.6-14.8 9.5-20 13-5.2 3.6-13.3 9.7-18 13.6-4.7 3.9-11.9 10-16 13.5-4.1 3.6-10.2 9-13.5 12.1-3.3 3-14 14.3-23.9 25-9.8 10.7-19.9 22.4-22.4 26-2.5 3.6-7.7 11-11.5 16.5-3.8 5.5-10.6 15.9-15 23-4.3 7.1-10.8 18.4-14.3 25-3.4 6.6-7.4 14.9-8.8 18.5-1.3 3.6-4.5 10.8-6.9 16-2.5 5.2-5.7 13.5-7.2 18.5-1.5 5-4.5 13.3-6.6 18.5-2 5.2-5.3 16-7.2 24-1.9 8-4.4 16.5-5.6 19-1.1 2.5-3.2 5.6-7.2 9.5zm2000 827v42.5c0 23.4-0.3 42.5-0.7 42.5-0.4 0-4.4-1.2-16.8-5.5l-42-0.5c-39.8-0.5-42.2-0.6-46-2.6-2.7-1.4-4.7-3.4-6.2-6.5-2.2-4.2-2.3-5.4-2.3-30.6 0-19.9 0.4-27.1 1.4-29.5 0.8-1.8 2.2-4.1 3.3-5 1-1 3.6-2.4 5.8-3.2 3.4-1.3 12.7-1.5 103.5-1.6zm0 129v82l-51.9-0.2c-50.1-0.3-52-0.4-54.6-2.3-1.5-1.1-3.7-3.3-4.8-4.8-2.1-2.7-2.2-3.9-2.2-30.7 0-26.8 0.1-28 2.2-30.7 1.1-1.5 3.3-3.7 4.8-4.8 2.6-1.9 4.7-2 88-3.1l7-2.6c3.9-1.5 8.1-2.7 11.5-2.8z" fill-rule="evenodd" id="Path 1"/>
<path class="s0" d="m1009.5 238.5c-2.2 0.8-5 2.5-6.3 3.8-1.2 1.2-2.7 3.6-3.2 5.2-0.5 1.7-1 66-1.2 150-0.2 80.9 0 148.7 0.4 150.8 0.5 2 2.3 5.3 4 7.2 2.4 2.6 4.6 3.9 8.3 4.6 2.8 0.6 11.7 0.9 20 0.7 13.4-0.3 15.4-0.5 18.8-2.6 2-1.2 4.5-3.7 5.4-5.5 1.6-2.9 1.8-8.4 2.3-59.2 0.3-38.6 0.8-56.6 1.6-58 0.6-1.1 2.4-3.1 4-4.5 1.6-1.4 4.7-3.2 6.9-4 3.3-1.2 12-1.5 48-1.5 42.7 0 44.1 0.1 47.5 2.1 1.9 1.1 4.4 3.6 5.5 5.5 1.9 3.3 2 5.7 2.5 59.9 0.5 54.5 0.6 56.6 2.5 60 1.2 1.9 3.8 4.4 6 5.5 3.6 1.8 6 2 22 2 16.3 0 18.4-0.2 22-2.1 2.2-1.2 4.9-3.6 6-5.5 2-3.4 2-5.4 2.3-152.4l0.2-149c-3.8-7.7-5.8-9.7-9-11.5-4.3-2.4-5.2-2.5-21.5-2.5-15.5 0-17.4 0.2-21.5 2.2-2.5 1.3-5.4 3.7-6.5 5.5-1.9 3.2-2 5.5-2.5 56.8-0.5 52.9-0.5 53.6-2.8 58.3-1.7 3.6-3.2 5.1-6.5 6.7-4 1.9-6.5 2-47.5 2-36.9 0-43.7-0.2-47-1.6-2-0.8-4.5-2.3-5.6-3.2-1-0.9-2.8-3.5-4-5.7-2.1-3.9-2.1-5.2-2.6-57-0.3-36.4-0.9-53.6-1.6-55-0.6-1.1-2.5-3.2-4.3-4.7-1.7-1.6-4.8-3.2-6.9-3.8-2-0.5-10-1-17.7-1-9.7 0.1-15.2 0.5-18 1.5zm291 0c-2.2 0.8-5 2.5-6.3 3.8-1.2 1.2-2.8 3.8-3.4 5.7-0.9 2.6-1.2 31.5-1.2 107.5-0.1 80 0.2 106.4 1.2 114.5 0.7 5.8 2.2 14.3 3.3 19 1.4 6.5 3.4 11.2 8.5 20 3.6 6.3 8.2 13.5 10.2 16 2 2.5 6.3 7.2 9.7 10.5 3.3 3.3 8 7.4 10.5 9.1 2.5 1.7 9.2 5.7 15 8.7 8.2 4.5 13.4 6.4 24 9.1 7.4 1.9 18 3.9 23.5 4.6 7.6 0.9 12.5 0.9 20.5 0 5.8-0.6 15.7-2.5 22-4.1 6.3-1.6 14.4-4.3 18-6 3.6-1.7 10.1-5.2 14.5-7.9 4.4-2.6 11.3-7.9 15.4-11.7 4.1-3.7 10.1-10.2 13.4-14.3 3.4-4.2 7.9-11.5 10.2-16.5 2.3-5 5-11.5 6-14.5 1-3 2.5-9.1 3.3-13.5 1.3-6.7 1.6-25.2 1.9-117 0.3-81 0.1-110-0.7-113-0.7-2.2-1.9-4.8-2.8-5.9-1-1-3-2.5-4.7-3.4-2.2-1.2-6.7-1.7-17-2-8.2-0.3-16.2 0-19.3 0.7-3 0.6-6.5 2.2-8.4 3.9-1.7 1.5-3.8 4.3-4.7 6.2-1.4 3.1-1.7 15.6-2.1 108l-0.5 104.5c-4.3 14-7.1 21.1-8.9 25-2.4 4.9-5.1 8.6-9.2 12.4-3.3 2.9-7.1 6-8.7 6.7-1.5 0.8-6.2 2.4-10.5 3.5-6.7 1.9-9.5 2.1-21.2 1.6-10.2-0.4-15-1-19.5-2.6-3.3-1.2-8.2-3.8-11-5.9-2.7-2-6.6-5.9-8.7-8.7-2.1-2.7-5.2-8.4-6.9-12.5-1.7-4.1-3.8-10.4-4.7-14-1.3-5.6-1.6-21-2.1-112-0.6-103.5-0.6-105.6-2.6-109-1.2-2.1-3.8-4.4-6.5-5.8-4.1-2-5.8-2.2-20-2.2-11 0.1-16.7 0.5-19.5 1.5zm289.5-0.4c-2.5 0.5-5.8 1.7-7.5 2.7-1.7 1-3.9 3.4-5 5.3-2 3.4-2 5.5-2.3 148.4-0.2 79.8-0.1 147.3 0.2 150 0.3 2.8 1.6 6.6 2.9 8.5 1.2 1.9 4 4.4 6.2 5.5 3.8 1.9 6.4 2 44 2.3 23.9 0.2 46.2-0.1 55.5-0.8 8.5-0.6 18.9-1.8 23-2.6 4.1-0.9 13.1-3.8 20-6.5 6.9-2.8 14.3-6.1 16.5-7.4 2.2-1.2 6.9-4.7 10.4-7.6 3.5-3 9.1-9 12.4-13.4 3.3-4.4 8.4-13 11.3-19 3.1-6.4 6-14.1 7-18.5 1-4.7 1.6-12.5 1.6-21 0-8.4-0.6-16.3-1.6-21-0.9-4.4-3.4-11.2-6.1-16.5-2.5-5-6.6-11.7-9-15-2.5-3.3-8.4-9.4-13.3-13.6-4.8-4.1-9.7-9.1-11-11-1.7-2.5-2.2-4.2-1.7-6.4 0.3-1.6 2.5-5.4 4.8-8.4 2.3-2.9 5.4-7 6.9-9 1.5-2 4.1-7.1 5.8-11.3 1.6-4.3 3.7-10.9 4.5-14.8 0.8-3.9 1.5-9.7 1.5-13 0-3.3-0.7-9.5-1.6-13.7-0.9-4.3-3-11.6-4.6-16.3-1.7-4.7-4.9-11.4-7.3-15-2.3-3.6-7.8-9.9-12.2-14-5.4-5.1-11.5-9.5-18.9-13.6-6-3.4-13-6.9-15.7-7.8-2.6-0.9-8.6-2.3-13.5-3.1-4.8-0.8-13.4-1.9-19.2-2.5-5.8-0.5-26-1-45-0.9-19 0.1-36.5 0.5-39 1zm-575 402c-2.5 0.5-6.8 2-9.5 3.3-2.8 1.2-8.4 5-12.5 8.3-4.1 3.3-9.7 8.4-12.3 11.4-2.7 3-5.9 7.7-7.2 10.4-1.2 2.8-3 8.3-3.9 12.3-0.9 3.9-1.6 9.8-1.6 12.9 0 3.2 0.9 9.4 2 13.8 1.1 4.4 3.3 10.7 4.8 14 1.7 3.5 5.5 8.9 9.4 13 3.6 3.9 9.7 8.8 13.4 11.1 3.8 2.3 9.1 4.9 11.9 5.9 2.8 1 9.3 2 14.5 2.2 5.2 0.3 12.2 0 15.5-0.6 3.3-0.6 9.3-2.8 13.4-4.9 4-2 9.6-5.7 12.3-8.2 2.9-2.7 5.3-5.9 6-8 0.7-2.6 0.6-4.2-0.4-6.3-0.7-1.6-2.6-3.2-4.3-3.8-2.3-0.7-4.2-0.6-8 0.7-2.8 0.9-7.9 3.2-11.5 5-3.6 1.8-8.8 3.8-11.5 4.5-3.1 0.7-7.5 1-11.5 0.5-4.3-0.4-8.7-1.7-13-3.9-5.3-2.6-7.5-4.5-11.8-10.2-2.9-3.8-6.2-9.5-7.3-12.5-1.6-4.3-2-7.2-1.7-13.5 0.2-6.6 0.9-9.2 3.5-14.5 1.7-3.6 5.2-8.5 7.6-11 2.5-2.5 7.1-5.8 10.4-7.4 3.9-2 7.9-3.1 12.3-3.4 4.5-0.3 8.4 0.1 12.5 1.3 3.3 0.9 9.8 3.5 14.5 5.6 5.5 2.5 10 3.9 12.7 3.9 3 0 4.9-0.6 6.3-2 1.1-1.1 2-3.2 2-4.8 0-1.5-0.9-4.2-2-6-1.1-1.7-5-5.5-8.8-8.3-3.7-2.7-9-6.1-11.7-7.4-2.8-1.3-7.7-2.8-11-3.4-3.3-0.6-8.9-1.1-12.5-1-3.6 0.1-8.5 0.5-11 1zm159.5-0.5c-1.1 0.2-4.5 0.9-7.5 1.5-3 0.6-6.8 1.8-8.5 2.6-1.7 0.9-7 4.5-12 8.2-7.4 5.5-10.1 8.3-15.1 15.6-3.3 5-6.9 11.5-8 14.5-1.5 4.3-1.9 8.1-1.9 18 0.1 10.4 0.4 13.4 2.2 18 1.2 3 4.4 8.9 7.1 13 2.7 4.1 6.6 9 8.8 10.9 2.1 1.9 7.3 5.7 11.4 8.3 4.1 2.7 10.7 5.8 14.5 7 6 1.8 8.7 2 18.5 1.6 8.8-0.4 12.8-1 17-2.7 3-1.3 8.7-4.3 12.5-6.8 3.8-2.5 8.7-6.1 10.8-8.1 2.1-2.1 5.6-6.4 7.7-9.7 2.2-3.3 4.9-8.5 6.1-11.5 1.6-3.9 2.3-8.5 2.7-16 0.3-6.1 0-13.4-0.7-17.5-0.7-4-2.7-9.7-4.7-13.5-1.8-3.6-5.7-9.1-8.6-12.4-2.9-3.2-9.1-8.4-13.8-11.5-4.7-3.2-10.8-6.5-13.5-7.4-2.8-1-9-2-14-2.2-5-0.2-9.9-0.2-11 0.1zm299 2.9c-2.2 0.8-4.8 2.3-5.8 3.3-1 0.9-2.5 3.5-3.3 5.7-1.2 3.4-1.4 11-1.2 49 0.3 43.3 0.4 45.1 2.4 48.5 1.1 1.9 3.2 4 4.7 4.5q2.7 1 5.4 0c1.6-0.6 3.5-2.5 4.5-4.5 1.1-2.1 2-7 2.4-12 0.3-4.7 1.2-10.4 2-12.8 0.8-2.5 2.7-5.1 4.6-6.6 1.8-1.3 8.3-3.8 14.3-5.6 6-1.7 12.8-4.2 15-5.4 2.2-1.3 5.5-3.9 7.4-5.7 1.8-1.9 4.2-5 5.1-6.9 1-1.9 2.3-6.3 2.9-9.8 0.8-4.4 0.8-8 0-12.4-0.6-3.5-1.9-8.1-2.8-10.3-1-2.2-4.5-6.5-7.7-9.7-3.2-3.1-8.2-6.6-10.9-7.9-4.4-2-6.8-2.4-20-2.6-11.6-0.3-15.9 0-19 1.2zm239.7-0.4c-1.8 0.5-4.2 2.2-5.3 3.7-1.1 1.5-2 3.7-1.9 5 0 1.2 0.5 3.2 1.1 4.5 0.7 1.2 3.5 4.7 6.4 7.7 2.8 3 6 7.1 7.1 9 1.7 3.2 1.9 6.5 2.4 38.5 0.4 30.8 0.7 35.4 2.3 38.3 0.9 1.7 3.2 3.9 5 4.8 1.9 1 4.4 1.4 6.2 1 1.7-0.3 3.7-1.3 4.6-2.3 0.9-1 2.3-2.9 3-4.3 1.1-1.9 1.5-10.5 1.9-38 0.4-31.3 0.7-35.9 2.3-38.8 0.9-1.7 4-5.3 6.8-7.9 2.8-2.7 5.7-6 6.5-7.5 0.8-1.6 1.4-4 1.4-5.5 0-1.6-0.9-3.7-2.2-5-1.3-1.2-3.5-2.6-5-3.2-1.7-0.7-10.3-1.1-21-1-10.1 0-19.8 0.5-21.6 1zm107.3-0.2c-1.7 0.4-4.2 1.4-5.7 2.4-1.6 0.9-3.6 3.2-4.5 5-1.6 2.9-1.8 7.5-2.1 45.2-0.2 23.1-0.1 44.3 0.2 47 0.3 2.7 1.6 6.5 2.8 8.4 1.3 1.9 3.9 4.4 5.8 5.5 3 1.8 5.5 2.1 19 2.4 8.5 0.2 17.5 0.1 20-0.3 3-0.5 5.4-1.7 7.3-3.6 2-2.2 2.7-3.9 2.7-6.9 0-3.1-0.6-4.5-2.7-6.3-1.6-1.3-4.1-2.6-5.8-3-1.7-0.3-6.2-0.9-10-1.2-3.8-0.4-8.6-1.5-10.5-2.5-2.2-1.1-4.2-3.2-5.4-5.6q-1.8-3.9-1.2-7.2c0.3-1.7 1.8-4.6 3.4-6.3 1.5-1.6 4-3.5 5.7-4 1.7-0.5 6.6-1.4 11-1.9 4.4-0.5 9-1.6 10.3-2.5 1.2-0.8 2.8-2.6 3.5-4 1-2 1-3 0-5-0.7-1.4-2.3-3.2-3.5-4-1.3-0.8-6.3-2.1-11.3-2.8-5-0.8-10.5-2.1-12.2-3.1-2.2-1-4-3.1-5.3-6.1-1.4-3.2-1.8-5.5-1.3-7.8 0.4-1.7 1.8-4.5 3.2-6 1.4-1.6 3.9-3.2 5.6-3.7 1.7-0.4 6.3-1.1 10.3-1.4 3.9-0.3 8.8-1.3 10.7-2.1 2-0.8 4.2-2.8 5-4.5 0.8-1.7 1.5-4 1.5-5.3 0-1.2-0.8-3.3-1.7-4.6-1-1.4-3.3-3.1-5-3.8-2.3-0.9-8.3-1.3-20-1.2-9.3 0.1-18.1 0.4-19.8 0.8zm-524.6 2.4c-1.9 1.2-4.3 4-5.4 6.2-1.9 3.8-2 6-2 48v44c4.1 8.3 6 10.5 8 11.3 2.5 1.2 3.5 1.2 5.9 0 1.6-0.7 3.6-2.6 4.4-4.3 1-2 1.8-8.3 2.5-19.5 0.5-9.1 1.4-18.1 2-20 0.8-2.2 1.9-3.6 3.2-3.8q2-0.4 5.5 3.6c1.9 2.2 4.7 6.1 6.2 8.8 1.5 2.7 3.9 9.4 5.5 14.9 1.6 5.5 3.8 11.6 4.9 13.5 1.1 1.9 3.6 4.5 5.5 5.8 1.9 1.3 4.9 2.3 6.9 2.3 2 0 4.7-0.9 6.3-2.1 1.5-1.1 3.7-3.9 4.8-6.3 1.2-2.3 5.1-11.6 8.6-20.7 3.5-9.1 7-17.5 7.8-18.8 0.8-1.2 2.2-2.5 3.1-3 0.9-0.4 2.2 0 3.5 1.3 1.1 1.1 2.6 4.7 3.4 8 0.8 3.3 1.5 10.9 1.5 17 0 6 0.5 12.8 1.2 15 0.6 2.2 2.2 5 3.4 6.2 1.7 1.6 3.6 2.3 6.4 2.3 3 0 4.7-0.6 6.5-2.5 1.4-1.4 3-4.4 3.6-6.8 0.7-2.8 0.9-19 0.7-47.7-0.3-41.2-0.4-43.7-2.3-47.4-1.1-2.1-3.5-4.7-5.5-5.7-2-1.1-5.5-1.9-8.2-1.9-2.7 0-6 0.5-7.5 1.1-1.6 0.5-4.1 2.2-5.6 3.7-1.6 1.5-3.5 3.8-4.2 5.2-0.7 1.4-3.4 8.3-6 15.5-2.6 7.2-6.4 18.4-8.6 25-2.2 6.6-4.6 13-5.4 14.2-0.8 1.3-2.5 2.7-3.7 3.2-1.3 0.4-3.4 0.5-4.8 0-1.4-0.4-4.2-2.6-6.2-4.9-3-3.2-4.4-6.1-6.9-14.3-1.7-5.6-4.5-14.2-6.2-19.1-1.8-4.9-5-12.5-7.2-17-3.2-6.5-4.8-8.5-8-10.3q-4-2.3-9.1-2.3c-3.6 0-6 0.7-8.5 2.3zm289.1 1.4c-1.9 1-4.3 3.4-5.5 5.3-1.9 3.3-2 5.1-2 36.5 0 31.1 0.1 33.4 2.2 40 1.2 3.8 4 9.7 6.1 13 2.4 3.5 6.4 7.8 9.9 10.3 3.2 2.4 8.3 5.2 11.3 6.4 4.5 1.6 7.1 1.9 14.5 1.5 6.9-0.3 10.4-1.1 14.8-3.1 3.1-1.4 8.2-5 11.3-7.9 3.4-3.2 6.8-7.7 8.8-11.7 1.8-3.6 3.8-9 4.5-12 0.8-3.8 1.1-15.6 0.9-38-0.3-30.8-0.4-32.7-2.4-36q-2-3.5-6-4.9c-3.4-1.2-4.3-1.2-7.1 0.2-2 1-4 3.2-5 5.4-1.4 3.3-1.8 8.8-2.2 38.3-0.5 29.5-0.8 34.9-2.3 37.5-0.9 1.7-2.9 4.2-4.5 5.7-1.5 1.5-4 3.2-5.5 3.7-1.6 0.6-4.9 1.1-7.5 1.1-3.2 0-6.2-0.8-8.8-2.4-2.2-1.3-5-3.8-6.2-5.7-1.2-1.9-2.6-6.1-3.2-9.4-0.6-3.4-1.1-18.2-1.1-34.5 0-15.7-0.4-30.1-1-32-0.5-1.9-1.9-4.5-3.2-5.7-1.3-1.2-3.4-2.4-4.8-2.7-1.5-0.4-3.9 0.1-6 1.1z" id="Path 2"/>
<path class="s1" d="m687.8 358.6c-4.3 0.8-10.6 2.5-14 3.8-3.5 1.3-13.3 5.8-21.8 10-8.5 4.2-20.7 10.4-27 13.9-6.3 3.4-15.5 8.7-20.5 11.6-4.9 3-12.1 7.5-16 10.1-3.8 2.6-9 5.8-11.5 7-2.5 1.3-6.3 3.5-8.5 5-2.2 1.5-8.7 5.4-14.5 8.6-5.8 3.2-14.8 8.1-20 10.9-5.2 2.9-13.1 7.3-17.5 9.9-4.4 2.5-8.3 4.6-8.7 4.6-0.5 0-5.2 2.2-10.5 4.9-5.4 2.6-16.8 7.8-25.3 11.3-8.5 3.6-20 8-25.5 9.8-5.5 1.8-14.5 4.9-20 7-5.5 2-14.9 4.9-21 6.3-6 1.5-19.1 4.5-29 6.7-9.9 2.3-30.4 5.9-45.5 8-15.1 2.1-34.5 5-43 6.4-8.5 1.3-20 3-25.5 3.6-5.5 0.6-15.6 2-22.5 3.1-6.9 1.1-15.2 2.7-18.5 3.5-3.3 0.9-12.7 3.7-21 6.3-8.2 2.7-17.5 6.1-20.5 7.6-3 1.5-8 4.5-11 6.5-3 2-7.2 5.6-9.2 7.9-2.1 2.2-5.2 6.2-6.8 8.8-1.7 2.7-3.9 7.5-5 10.8-1 3.3-2.2 10-2.5 15-0.4 5.3-0.3 12.9 0.4 18.5 0.7 5.2 2.1 13.5 3.3 18.5 1.1 5 4.5 15.5 7.5 23.5 3 8 8.9 21 13.1 29 4.2 8 10.5 18.5 14.1 23.5 3.6 5 10.7 14 15.7 20 5.1 6 12.1 13.7 15.5 17.1 3.5 3.3 9.3 8.5 12.9 11.5 3.6 3.1 10.8 8.7 16 12.6 5.2 3.8 11.3 8.1 13.5 9.5 2.2 1.4 8.5 5 14 8.1 5.5 3.1 17.9 8.8 27.5 12.6 10.8 4.3 25.9 9.3 39.5 13 12.1 3.3 25.2 6.4 29 7 3.9 0.6 15.1 1.7 25 2.6 9.9 0.8 24.1 1.5 31.5 1.5 7.4 0 21.2-0.7 30.5-1.5 9.4-0.8 21.7-2.1 27.5-2.9 5.8-0.8 22-4.4 36-8 14.1-3.6 33.8-9.5 44-13.1 10.2-3.6 24.6-9.3 32-12.7 7.4-3.3 19.1-9.2 26-13.1 6.9-3.9 17.7-10.2 24-14.1 6.3-3.9 15.6-10 20.5-13.7 5-3.6 11.7-9 15.1-12 3.3-3 11-9.8 17-15.1 6-5.3 13.7-13 17.1-17 3.4-4 11.6-14.1 18.1-22.3 6.6-8.3 14.8-20 18.2-26 3.5-6 9.1-16.8 12.5-24 3.4-7.2 7.5-16.8 8.9-21.5 1.5-4.7 4.3-13 6.1-18.5 1.8-5.5 4-12.7 4.9-16 0.8-3.3 2.2-11.2 3.1-17.5 0.9-6.3 1.9-18.3 2.2-26.5 0.3-8.6 0.1-20.7-0.6-28.5-0.6-7.4-1.9-17.8-2.7-23-0.9-5.2-4.5-19-8.1-30.5-3.7-12.2-8.8-26-12-33-3.1-6.6-7.1-14.4-9-17.3-1.8-2.8-6.6-8.7-10.7-13-4.1-4.2-10-9.3-13.2-11.2-3.2-1.9-8.8-4.3-12.4-5.2-3.7-1-10.1-1.7-15-1.7-4.7 0.1-12 0.7-16.2 1.5zm1263.5 307.3c-1.8 1.2-4.2 3.9-5.3 6.1-1.1 2.2-2 5.7-2 7.7 0 2.1 0.8 5.4 1.8 7.3 0.9 1.9 3.3 4.5 5.2 5.8 2.2 1.4 5 2.3 7.5 2.3 2.5 0 5.3-0.9 7.4-2.3 1.9-1.3 4.4-3.6 5.5-5.1 1.5-2.1 2.1-4.3 2.1-8.2 0-3.9-0.6-6.1-2.1-8.2-1.2-1.5-3.2-3.6-4.5-4.6-1.3-1-4.6-2.1-7.4-2.3-3.9-0.4-5.7-0.1-8.2 1.5z" id="Path 3"/>
<path class="s0" d="m649.5 432.4c-3.3 0.8-10.3 3.1-15.5 5.2-5.2 2.1-12 5.7-15 7.9-3 2.3-8.2 7.1-11.5 10.7-3.3 3.6-8.1 10.3-10.8 14.9-2.6 4.6-5.7 11.3-6.8 14.9-1.7 5.2-2.2 10.3-2.8 25.1-0.6 18.1-0.7 18.7-3.3 22.7-1.6 2.3-4.7 5.3-7 6.7-2.4 1.3-9 4.2-14.8 6.3-5.8 2.2-12.3 4.8-14.5 5.9-2.2 1.1-8.5 3.7-14 5.8-5.5 2-13.4 5.4-17.5 7.5-4.1 2-12 5.4-17.5 7.3-5.5 2-13.8 5.4-18.5 7.5-4.7 2.2-11 4.7-14 5.7-3 1-10.4 4-16.5 6.7-6.1 2.7-13.9 5.6-17.5 6.4-4.1 1-8 1.3-10.5 0.8-2.7-0.5-6.8-2.9-12.5-7.2-4.7-3.6-11.6-8.3-15.5-10.3-3.9-2.1-10.1-4.6-14-5.5-5.1-1.2-9.6-1.5-16.5-1.1-5.4 0.3-11.9 1.4-15 2.5-3 1-8.6 3.6-12.5 5.7-4.3 2.3-9.7 6.6-14 11-4.3 4.3-8.4 9.8-10.6 14-2 3.9-4.5 10.2-5.4 14-1 4.1-1.8 10.7-1.8 16 0 6.1 0.7 11.5 2.2 16.8 1.1 4.2 2.9 9.4 4 11.5 1 2 5 7.5 8.9 12.2 3.9 4.7 9.3 10 11.9 11.7 2.6 1.8 7.5 4.3 10.8 5.7 3.3 1.3 8.9 3.2 12.5 4.1 4.7 1.2 8.9 1.6 15 1.2 5-0.3 11.2-1.4 15-2.7 3.6-1.2 9.2-3.7 12.5-5.4 3.2-1.7 8.1-5.3 10.9-8.1 2.7-2.7 7.3-7.9 10.2-11.5 2.9-3.6 6.2-8.5 7.3-11 1.1-2.5 2.5-7.7 3-11.5 0.6-3.8 1.5-10.2 2.1-14 0.7-4.9 1.8-8.2 3.8-11 1.5-2.2 4.8-5.4 7.2-7 2.5-1.7 9.2-4.8 15-6.9 5.8-2.1 12.5-4.9 15-6.3 2.5-1.4 11-5.1 19-8.3 8-3.2 18.6-7.5 23.5-9.5 5-2 14.9-6 22-9 7.1-2.9 14.8-5.8 17-6.5 2.2-0.7 9.4-3.9 16-7.1 6.6-3.2 14.9-6.6 18.5-7.5 4-1 8.1-1.4 10.5-1 2.2 0.4 5.7 1.7 7.7 2.9 2 1.2 5.6 3.9 8 5.9 2.4 2 8.6 6 13.8 8.8 5.2 2.8 12.6 6 16.5 7.2 5.6 1.8 9.5 2.2 19.5 2.2 8.6 0 14.5-0.6 19-1.8 3.6-0.9 10.8-3.8 16-6.3 7.9-3.9 11-6.1 18.1-13.2 4.8-4.7 10.4-11.3 12.5-14.6 2.2-3.3 5.7-11.2 7.9-17.5 3.6-10.6 3.9-12.4 3.9-22.5 0-8.6-0.5-12.8-2.2-19-1.3-4.4-3.8-11.1-5.6-15-1.7-3.9-5.2-9.7-7.8-13-2.5-3.3-7.5-8.8-11.2-12.2-3.6-3.5-9.2-7.6-12.4-9.2-3.1-1.6-10-4.3-15.2-6.1-7.8-2.7-11.4-3.3-20-3.6-6.6-0.2-12.7 0.1-16.5 1z" id="Path 4"/>
<path class="s1" d="m1647.5 295c-1.7 0.5-4.3 2.1-5.8 3.7-1.6 1.5-3.3 4.4-3.8 6.3-0.6 2-0.9 12.6-0.7 25.2 0.3 19.8 0.5 21.9 2.3 24.4 1.1 1.4 3.1 3.5 4.5 4.6 1.4 1.1 4.8 2.3 7.5 2.8 2.8 0.4 9.5 0.4 15-0.1 5.5-0.5 12.9-1.9 16.5-3.1 3.6-1.2 8.6-3.9 11.3-6 2.6-2.1 6-5.5 7.5-7.5 1.7-2.3 3.3-6.3 4.1-10.3 1-5.3 1-7.7 0-13-0.9-4.3-2.3-7.8-4.4-10.4-1.6-2.2-5.3-5.8-8-8.1-2.8-2.3-7.7-5.1-11-6.4-4.8-1.8-8.6-2.4-19-2.7-7.2-0.2-14.3 0.1-16 0.6zm0.6 125.7c-1.3 0.2-3.9 1.9-5.7 3.6-1.7 1.8-3.8 5.2-4.5 7.7-1 3.3-1.4 11.7-1.4 32 0 25.6 0.1 27.8 2.1 32 1.6 3.6 3 5 7 6.9 4.8 2.3 5.4 2.4 22.4 1.9 15.5-0.4 18.4-0.8 25.5-3.2 4.4-1.4 10.9-4.5 14.5-6.9 3.8-2.5 7.8-6.1 9.5-8.7 1.7-2.5 4.1-7.4 5.3-11 1.3-3.8 2.2-8.9 2.2-12.3 0-3.1-0.9-8.5-2-11.9-1.1-3.5-3.5-8.5-5.4-11.3-1.9-2.7-5.8-6.7-8.8-8.7-2.9-2-8.7-4.8-12.8-6.2-4.1-1.4-10.4-3-14-3.5-3.6-0.6-12.1-1-19-1-6.9 0.1-13.6 0.4-14.9 0.6zm-477.6 241.7c-2.2 0.7-6 2.4-8.5 3.8-2.5 1.5-6.3 4.6-8.6 7-2.2 2.4-5.1 7-6.4 10.3-1.9 4.9-2.4 7.9-2.4 16-0.1 9.2 0.2 10.5 3.2 17 1.8 3.9 5.1 8.9 7.5 11.2 2.3 2.3 6.9 5.5 10.2 7 5.3 2.5 7.1 2.8 16 2.8 9.2 0 10.6-0.3 16.5-3.2 3.6-1.7 8-4.8 9.9-7 1.9-2.1 5.1-7.2 7-11.3 2.8-5.8 3.7-9.1 4-14.5 0.3-5.3-0.2-8.6-1.8-13.5-1.1-3.6-3.6-8.7-5.4-11.5-1.9-2.7-5.2-6.2-7.3-7.7-2.1-1.5-6.6-3.9-9.9-5.3-4.5-1.8-7.7-2.4-13-2.4-3.8 0-8.8 0.6-11 1.3zm320 3.7c-1.1 0.6-2.9 2.2-3.9 3.7-1.1 1.5-2.2 4.7-2.4 7.2-0.3 2.9 0.1 5.6 1.2 7.8 0.9 1.7 2.8 3.8 4.4 4.6 1.5 0.7 3.8 1.6 5.2 1.9 1.4 0.4 4.1 0.2 6-0.3 1.9-0.6 4.8-2.3 6.3-3.8 1.5-1.5 3.2-4.4 3.7-6.4 0.7-2.8 0.6-4.7-0.3-7-0.7-1.8-2.9-4.4-4.8-5.8-2.3-1.6-5-2.5-8.4-2.7-2.7-0.2-5.9 0.2-7 0.8z" id="Path 5"/>
</g>
</svg>